<svg width="82" height="82" viewBox="0 0 82 82" xmlns="http://www.w3.org/2000/svg">
    <path d="M55.1351 29.3388C52.9789 27.1826 49.471 27.1826 47.3148 29.3388L36.9198 39.7338L33.9276 36.7416C31.7714 34.5854 28.2635 34.5854 26.1073 36.7416C23.9511 38.8978 23.9511 42.4057 26.1073 44.5619L33.7753 52.2299C34.6425 53.0971 35.7792 53.5307 36.9159 53.5307C38.0526 53.5307 39.1893 53.0971 40.0565 52.2338L55.1305 37.1638C56.1735 36.1208 56.7516 34.7302 56.7516 33.2536C56.7516 31.777 56.1774 30.3864 55.1344 29.3434L55.1351 29.3388ZM53.4242 35.4482L38.3502 50.5182C37.5611 51.3073 36.276 51.3073 35.4869 50.5182L27.8189 42.8502C26.608 41.6393 26.608 39.6627 27.8189 38.4518C28.4243 37.8463 29.2212 37.5416 30.0181 37.5416C30.815 37.5416 31.6119 37.8463 32.2173 38.4518L36.065 42.2995C36.5376 42.7722 37.3033 42.7722 37.7759 42.2995L49.0259 31.0495C50.2368 29.8386 52.2134 29.8386 53.4243 31.0495C54.0102 31.6354 54.3344 32.4167 54.3344 33.2487C54.3344 34.0807 54.0101 34.8623 53.4242 35.4482ZM40.6232 12.4642C38.8771 12.4642 37.1584 12.6244 35.5216 12.9329C22.1546 15.3665 12.4556 27.007 12.4556 40.617C12.4556 56.148 25.0926 68.785 40.6236 68.785C49.4986 68.785 57.6666 64.7263 63.0336 57.6519C66.7914 52.7222 68.7797 46.832 68.7797 40.617C68.7797 25.094 56.1507 12.461 40.6237 12.461L40.6232 12.4642ZM61.1072 56.1912C56.201 62.66 48.7362 66.3672 40.6232 66.3672C26.4242 66.3672 14.8732 54.8162 14.8732 40.6172C14.8732 28.1762 23.7404 17.5352 35.9632 15.3082C37.4593 15.023 39.0296 14.8785 40.6234 14.8785C54.8144 14.8785 66.3574 26.4255 66.3574 40.6125C66.3574 46.2961 64.541 51.6785 61.1035 56.1825L61.1072 56.1912ZM78.6772 34.4292L77.7592 33.5112C76.1967 31.9487 75.5561 29.6479 76.0873 27.5073L76.3998 26.2456C77.556 21.5542 74.685 16.8003 69.9936 15.6406C67.7202 15.0781 65.9467 13.3203 65.3686 11.0508C64.7905 8.78523 63.3647 6.87503 61.3491 5.68363C59.3374 4.48833 56.978 4.14843 54.7124 4.7305L53.646 5.00394C51.4858 5.55472 49.1694 4.918 47.5913 3.34374L46.814 2.5664C45.1578 0.9102 42.9585 0 40.6187 0C38.2789 0 36.0796 0.91016 34.4234 2.5664L33.5054 3.48437C31.9429 5.04297 29.6421 5.68747 27.5015 5.15627L26.2398 4.84377C21.5484 3.68757 16.7945 6.55857 15.6348 11.25C15.0723 13.5234 13.3145 15.2969 11.045 15.875C8.77939 16.4531 6.87309 17.8789 5.67779 19.8945C4.48249 21.9062 4.14659 24.2656 4.72467 26.5312L4.99812 27.5976C5.5489 29.7578 4.91218 32.0742 3.33791 33.6523L2.56058 34.4296C-0.853525 37.8437 -0.853525 43.4023 2.56058 46.8206L3.47854 47.7386C5.04104 49.2972 5.68164 51.598 5.15044 53.7425L4.83794 55.0042C3.68174 59.6956 6.55274 64.4495 11.2441 65.6092C13.5175 66.1717 15.291 67.9295 15.8691 70.199C16.4473 72.4646 17.873 74.3748 19.8886 75.5662C21.9003 76.7576 24.2558 77.1014 26.5253 76.5193L27.5917 76.2459C29.7479 75.6951 32.0683 76.3318 33.6425 77.9061L34.4199 78.6834C36.0761 80.3396 38.2754 81.2498 40.6152 81.2498C42.955 81.2498 45.1543 80.3396 46.8105 78.6834L47.7285 77.7654C49.2871 76.2068 51.5879 75.5623 53.7324 76.0935L54.9941 76.406C57.2675 76.9646 59.6191 76.6092 61.623 75.3982C63.6269 74.1873 65.0371 72.2693 65.5996 69.9998C66.1621 67.7264 67.9199 65.9529 70.1894 65.3748C74.8691 64.1795 77.705 59.4021 76.5097 54.7188L76.2362 53.6524C75.6854 51.4922 76.3222 49.1758 77.8964 47.5977L78.6738 46.8204C82.0879 43.4063 82.0879 37.8477 78.6738 34.4294L78.6772 34.4292ZM76.9663 45.1092L76.1889 45.8865C74.0131 48.0623 73.1342 51.2654 73.8959 54.2459L74.1694 55.3123C75.0327 58.699 72.9819 62.16 69.5913 63.0271C66.4546 63.8279 64.0288 66.2771 63.2515 69.4177C62.8452 71.0622 61.8257 72.4489 60.3726 73.3279C58.9234 74.2029 57.2164 74.4607 55.5718 74.0584L54.3101 73.7459C51.3492 73.0154 48.1695 73.9022 46.0171 76.0584L45.0991 76.9764C43.8999 78.1756 42.31 78.8319 40.6147 78.8319C38.9194 78.8319 37.3295 78.1717 36.1303 76.9764L35.353 76.199C33.6968 74.5428 31.4389 73.6365 29.1421 73.6365C28.4233 73.6365 27.7007 73.7225 26.9937 73.9061L25.9273 74.1795C24.2867 74.5975 22.5796 74.3514 21.1226 73.4881C19.6656 72.6248 18.6343 71.242 18.2124 69.6014C17.4116 66.4647 14.9624 64.0389 11.8218 63.2616C10.1773 62.8553 8.79056 61.8358 7.91156 60.3827C7.03656 58.9335 6.77486 57.2304 7.18109 55.5858L7.49359 54.3241C8.22406 51.3632 7.33734 48.1874 5.18109 46.0311L4.26312 45.1131C1.79042 42.6404 1.79042 38.617 4.26312 36.1443L5.04046 35.367C7.21626 33.1912 8.09516 29.9881 7.33346 27.0076L7.06002 25.9412C6.64205 24.3006 6.88815 22.5935 7.75143 21.1365C8.61471 19.6795 9.99753 18.6482 11.6381 18.2263C14.7748 17.4255 17.2006 14.9763 17.9779 11.8357C18.3842 10.1912 19.4037 8.80449 20.8568 7.92549C22.306 7.05049 24.013 6.78879 25.6537 7.19502L26.9154 7.50752C29.8724 8.23799 33.0521 7.35127 35.2084 5.19502L36.1264 4.27705C37.3256 3.07785 38.9155 2.42155 40.6108 2.42155C42.3061 2.42155 43.896 3.08171 45.0952 4.27705L45.8725 5.05439C48.0483 7.23019 51.2553 8.10909 54.2358 7.34739L55.3022 7.07395C56.9428 6.65598 58.6499 6.89817 60.1069 7.76536C61.5639 8.62864 62.5952 10.0115 63.0171 11.6521C63.8179 14.7888 66.2671 17.2146 69.4077 17.9919C72.8022 18.8317 74.8843 22.2731 74.0444 25.6677L73.7319 26.9294C73.0015 29.8903 73.8882 33.0661 76.0444 35.2224L76.9624 36.1403C79.4351 38.613 79.4351 42.6364 76.9624 45.1091L76.9663 45.1092Z" />
</svg>
